<svg xmlns="http://www.w3.org/2000/svg" viewBox="0 0 1000 1000" width="1000" height="1000"><defs>
  <linearGradient id="vol" x1="0" x2="1"><stop offset="0" stop-color="#000" stop-opacity=".30"/><stop offset=".22" stop-color="#000" stop-opacity="0"/><stop offset=".78" stop-color="#000" stop-opacity="0"/><stop offset="1" stop-color="#000" stop-opacity=".30"/></linearGradient>
  <linearGradient id="sheen" x1="0" y1="0" x2="0" y2="1"><stop offset="0" stop-color="#fff" stop-opacity=".22"/><stop offset=".5" stop-color="#fff" stop-opacity=".04"/><stop offset="1" stop-color="#000" stop-opacity=".10"/></linearGradient>
  <radialGradient id="pit" cx=".5" cy=".5" r=".5"><stop offset="0" stop-color="#000" stop-opacity=".22"/><stop offset="1" stop-color="#000" stop-opacity="0"/></radialGradient>
  <filter id="sh" x="-10%" y="-10%" width="120%" height="130%"><feDropShadow dx="0" dy="14" stdDeviation="16" flood-color="#000" flood-opacity=".18"/></filter>
  <filter id="cloth"><feTurbulence type="fractalNoise" baseFrequency=".9" numOctaves="2" seed="3"/><feColorMatrix type="saturate" values="0"/><feComponentTransfer><feFuncA type="linear" slope=".035"/></feComponentTransfer><feComposite in2="SourceGraphic" operator="in"/></filter>
</defs><path d="M420 150 L480 120 Q560 170 600 130 L640 160 L700 260 L690 900 L390 900 L380 260 Z" fill="{{COLOR}}" filter="url(#sh)"/><path d="M420 150 L480 120 Q560 170 600 130 L640 160 L700 260 L690 900 L390 900 L380 260 Z" fill="url(#sheen)"/><path d="M420 150 L480 120 Q560 170 600 130 L640 160 L700 260 L690 900 L390 900 L380 260 Z" fill="url(#vol)"/><path d="M600 130 L640 160 L700 260 L780 760 L700 780 L660 420 Z" fill="{{COLOR}}"/><path d="M600 130 L640 160 L700 260 L780 760 L700 780 L660 420 Z" fill="url(#sheen)"/><path d="M600 130 L640 160 L700 260 L780 760 L700 780 L660 420 Z" fill="#000" fill-opacity=".06"/><path d="M420 150 L480 120 Q560 170 600 130 L640 160 L700 260 L690 900 L390 900 L380 260 Z" fill="#888" filter="url(#cloth)" opacity=".6"/><path d="M480 120 Q560 170 600 130 Q560 200 480 120Z" fill="#000" fill-opacity=".15"/><path d="M450 400 q20 150 0 380" fill="none" stroke="#000" stroke-opacity=".06" stroke-width="14" stroke-linecap="round"/></svg>